<svg xmlns="http://www.w3.org/2000/svg" width="380" height="380" viewBox="0 0 380 380">
  <style>
    #logo .brand { fill: #ff00f9; }
    @media (prefers-color-scheme: dark) {
      #logo .brand { fill: #ffffff; }
    }
  </style>
  <g id="logo">
    <path class="brand" d="m173.12747,2.39199c-1.75999.285-4.76199.53-6.67099.544-4.64.035-9.41301.715-11.129,1.586-.77.391-3.11,1.129-5.20001,1.639-2.09.511-4.15999,1.159-4.59999,1.44s-2.15001.882-3.8,1.336c-1.64999.454-3.72,1.168-4.60001,1.588-6.53499,3.116-8.29399,4.042-10.59299,5.572-1.43401.955-3.05701,2.148-3.60701,2.651-.55.504-1.433,1.14-1.963,1.413-1.506.777-6.385,4.877-9.141,7.682-2.783,2.832-4.243,6.056-5.761,12.719-.426,1.87-1.209,4.03-1.74,4.8-.622.903-1.058,2.252-1.228,3.8-.334,3.055-2.48199,7.449-4.70599,9.628-2.812,2.755-3.328,3.485-5.07201,7.188-.92799,1.971-2.096,4.394-2.596,5.384-1.24,2.459-1.80199,10.78-.868,12.852,1.418,3.147,1.805,11.818.676,15.148-.484,1.43-1.049,4.4-1.25401,6.6-.55,5.902-1.046,8.626-1.70399,9.352-3.051,3.37401-3.085,17.597-.051,21.248.274.33.827,1.5,1.228,2.60001.401,1.09999,1.235,2.591,1.854,3.314.619.72301,1.126,1.485,1.126,1.69501,0,.209.724.838,1.609,1.39699.885.55801,2.498,1.86501,3.584,2.905,5.419,5.18102,8.248,5.96001,20.07999,5.526,10.591-.388,11.455.53601,8.94301,9.563-.55101,1.98-1.005,3.98-1.009,4.444s-.435,1.47501-.95801,2.246c-.52299.771-1.17299,2.101-1.444,2.95599-.271.85501-.84099,2.16301-1.267,2.908-.91199,1.595-1.92,6.888-1.931,10.138-.013,4.28799,1.31801,6.03799,5.22801,6.87,1.41399.30101,7.81999-.77499,8.92599-1.49899,3.65399-2.395,5.647-1.526,8.114,3.537,3.168,6.5,4.883,7.93199,9.202,7.687,3.32701-.19,5.06601-1.349,6.983-4.658,2.91701-5.036,6.399-7.19899,9.00101-5.592,1.405.869,3.739,3.35699,3.739,3.987,0,.767,5.131,2.131,6.312,1.67799.60699-.23299,2.46201-4.043,3.728-7.65799.953-2.72101,1.33101-3.16501,2.95201-3.46901,1.243-.23299,3.53099.54501,3.87199,1.317.16499.373,1.911,1.42601,4.302,2.595.97099.47501,2.411,1.549,3.2,2.38701,2.63899,2.80499,5.46899,1.597,7.674-3.278,2.371-5.24301,5.769-6.58,10.39801-4.093,6.627,3.561,12.51999,3.69,15.42099.33699,4.88501-5.646,4.23001-9.987-2.627-17.407-.897-.97099-1.632-1.899-1.632-2.062,0-.162-.771-.74699-1.71399-1.299-6.95601-4.077-6.88301-9.946.151-12.04401,1.00999-.30099,2.57799-.925,3.48399-1.388.905-.46199,3.13901-1.188,4.963-1.614,7.151-1.66899,12.011-3.52899,13.42401-5.13699,4.37399-4.979,7.69199-11.39801,7.69199-14.882,0-1.241,1.189-4.408,2.267-6.036.54401-.82201,1.25201-2.50101,1.573-3.73001.32101-1.22899.92001-2.821,1.332-3.53799.41202-.717,1.04501-2.631,1.405-4.255.36102-1.62399.94101-3.504,1.29001-4.17799.349-.674.95401-2.343,1.34399-3.71.39102-1.366,1.17801-3.28201,1.75-4.257.57101-.975,1.039-1.981,1.039-2.236,0-.99,3.604-8.413,5.25702-10.827.95898-1.4,2.125-3.111,2.59097-3.802.46701-.691.983-1.882,1.14801-2.647s.547-1.873.84702-2.462c.30099-.589,1.00998-3.262,1.57599-5.941,1.09-5.166,1.08899-5.211-.384-10.388-.34399-1.21-.62799-2.80199-.63-3.53699-.005-1.273-.311-1.812-2.82599-4.978-.56201-.707-1.90799-2.545-2.991-4.085-1.76602-2.511-2.99002-3.995-5.612-6.802-.45401-.486-1.17599-1.438-1.60602-2.117-.91498-1.444-2.86499-2.941-5.323-4.083-2.04099-.949-3.57401-2.104-9.047-6.814-2.19998-1.894-4.72-3.864-5.59999-4.377-.88-.514-2.05-1.329-2.60001-1.811-.55-.482-1.98999-1.434-3.2-2.116s-2.799-1.791-3.53101-2.465c-.73199-.675-1.90199-1.52-2.59999-1.88-.698-.359-1.925-1.211-2.726-1.894-2.52501-2.15-9.739-6.264-12.04001-6.864-1.21399-.318-3.362-1.011-4.772-1.542-2.67799-1.008-11.463-2.791-15.931-3.234-1.42999-.141-5.11299-.695-8.18399-1.229-6.12601-1.066-8.033-1.117-12.81601-.342m36.871,67.39c3.91901.527,6.573,1.802,9.103,4.373,1.08601,1.104,2.11301,2.007,2.283,2.007,1.05701,0,2.343,3.576,2.343,6.51199,0,2.33701.188,3.361.811,4.416,2.08,3.526,2.177,8.40501.203,10.259-.54301.51-1.274,1.789-1.623,2.841-1.106,3.328-5.36,6.38699-10.791,7.758-5.013,1.266-7.16301.052-10.565-5.97-.97-1.71799-2.83-4.314-4.132-5.77-1.302-1.455-2.75301-3.306-3.22501-4.113s-1.377-1.773-2.01099-2.148c-1.84201-1.088-3.68201-5.385-3.60701-8.423.129-5.215,3.188-8.524,9.94-10.75401,4.666-1.54,6.174-1.672,11.271-.988m-58.67099,3.64301c7.89299,5.503,11.282,12.019,9.01599,17.337-.375.88-1.037,2.735-1.472,4.122-.43399,1.38699-1.229,3.348-1.767,4.35899-.537,1.011-.97701,2.052-.97701,2.314s-1.097,1.54-2.437,2.84c-1.34,1.30099-2.94499,2.863-3.56599,3.47099-3.64801,3.573-14.80501,3.146-18.532-.708-2.795-2.891-4.12901-4.723-4.65701-6.39799-.27699-.88-.978-2.107-1.556-2.72701-1.87799-2.01199-1.59299-9.438.52-13.542,1.76601-3.431,4.27301-5.897,6.828-6.715.88-.282,2.05-.917,2.60001-1.411,4.769-4.286,12.12999-5.64,16-2.94199m26.95399,37.905c3.52299,2.424,4.595,4.27699,5.465,9.446,1.825,10.839,1.57201,12.884-2.075,16.782-6.189,6.616-12.479,7.786-14.901,2.772-.416-.86301-1.181-2.405-1.7-3.427-1.144-2.255-1.179-3.687-.18001-7.341.42101-1.53999.95601-4.29199,1.18901-6.11499.403-3.16101.99699-4.89,3.248-9.457,1.80499-3.661,5.782-4.842,8.95399-2.66m132.25401,11.478c-.54501.218-1.26501.631-1.60001.918-.33401.287-2.01199.754-3.729,1.039-2.319.384-3.487.80901-4.548,1.65199-.785.623-2.05301,1.30701-2.81699,1.51801-.76501.211-1.77802.741-2.25201,1.177-2.40701,2.216-5.05701,5.10201-5.06,5.509-.00101.25299-.54599,1.493-1.20999,2.756-1.689,3.211-2.19702,8.02499-1.70801,16.185.54401,9.08501-.44101,11.33301-5.884,13.437-.98999.38301-2.03,1.01801-2.311,1.412s-1.54099,1.028-2.79999,1.408c-1.259.379-2.46899.89799-2.689,1.151-.64801.74699-1.96902,1.33701-4.02502,1.798-1.05899.237-2.16098.76799-2.44998,1.179-.28799.41199-1.379,1.064-2.42401,1.44899-1.04599.386-2.202.95601-2.57001,1.26801-.36798.311-1.98798.991-3.59998,1.511-8.18002,2.64-11.74503,4.133-14.46201,6.06099-1.06201.75301-2.349,1.528-2.85901,1.722-1.353.515-6.31799,3.98001-6.908,4.82201-.27699.396-1.13699.92899-1.909,1.18399-.77299.255-2.347,1.27502-3.49899,2.26501-1.15201.991-3.095,2.31198-4.31801,2.935-1.22299.62299-2.47099,1.431-2.77299,1.79498-.302.36401-1.282,1.03403-2.17599,1.48801-.895.45502-2.07701,1.17001-2.627,1.58902-1.94501,1.47998-5.022,3.36298-6.70001,4.10098-.935.41-1.7.875-1.7,1.03101,0,.15701-1.125.78601-2.5,1.39801s-2.629,1.32999-2.787,1.595c-.157.26498-2.407,1.52899-5,2.80899-2.592,1.28-4.983,2.54501-5.31299,2.81299-.33.267-1.677.79401-2.994,1.17102-1.487.42599-2.965,1.20099-3.901,2.047-.82899.74799-1.662,1.36099-1.851,1.36099-.18901,0-1.02301.54001-1.853,1.19901-2.334,1.85498-8.897,3.54001-9.567,2.457-.117-.19-1.34201-.65601-2.72301-1.03601s-3.073-1.01599-3.759-1.41199c-1.48399-.85602-8.13499-3.703-10.22699-4.37802-.811-.26099-1.89101-.79898-2.40001-1.19498-.509-.39502-1.645-.948-2.52499-1.229-1.44701-.461-3.905-1.78799-7.8-4.20999-.77-.479-2.12-1.10101-3-1.38303-.88-.28198-2.14-.90698-2.8-1.39099-1.32899-.97299-8.66699-4.62201-9.29399-4.62201-.21901,0-.86501-.36697-1.43501-.81598-.571-.448-2.06799-1.17001-3.327-1.603-1.25999-.43402-2.88499-1.13901-3.61099-1.56802-.72701-.42798-2.019-.96698-2.87201-1.19699-.853-.229-2.24799-.88998-3.099-1.46799-.852-.578-2.682-1.36502-4.06799-1.74902-1.386-.38397-2.841-.98898-3.232-1.34299s-2.112-.99399-3.824-1.42099c-1.71201-.42801-3.411-1.03-3.775-1.33801-.36501-.308-1.69801-1.054-2.96301-1.65799-1.265-.604-2.3-1.24001-2.3-1.41501,0-.174-1.035-.694-2.3-1.15601-1.265-.461-3.47-1.696-4.9-2.74399-1.43-1.048-3.41-2.317-4.39999-2.82001-.99001-.50299-2.88-1.70999-4.2-2.68199-1.32-.97301-3.143-2.14601-4.05099-2.60701-1.46101-.743-2.776-1.778-5.549-4.373-.44-.412-1.478-1.032-2.307-1.37799-1.978-.826-6.128-4.5-6.733-5.96201-.263-.633-1.437-2.134-2.61-3.336-1.616-1.65401-2.29-2.72301-2.779-4.405-.355-1.22101-1.168-3.215-1.808-4.431s-1.163-2.511-1.163-2.877c0-.36501-.336-1.29201-.746-2.05901-.411-.767-.955-2.368-1.21-3.558-.254-1.19-.851-2.99001-1.325-4s-1.415-3.164-2.091-4.787c-1.773-4.25999-2.797-4.79199-7.97-4.138-4.782.604-6.809,1.392-7.83,3.043-.432.70001-1.257,1.80701-1.832,2.46001-1.22,1.384-2.76,4.283-3.164,5.95599-.155.64301-.826,1.92601-1.49,2.85001-.997,1.38899-1.306,2.39-1.775,5.745-.639,4.57201-2.552,10.039-3.893,11.12601-.481.39-1.367,1.744-1.97,3.009-.602,1.265-1.255,2.29999-1.451,2.29999s-.592.569-.88,1.265-1.28,2.00101-2.203,2.90001c-3.17,3.086-4.96,4.63499-5.357,4.63499-1.501,0-4.032,9.354-3.374,12.47101.288,1.36499.624,1.84799,1.62,2.32599,1.306.627,3.787,2.55101,5.909,4.58299,1.645,1.57501,9.709,2.18301,19.485,1.46701,6.72-.491,10.198-.08899,12.947,1.49899.66.38101,2.28,1.12201,3.6,1.647,1.32.52402,2.76,1.17001,3.2,1.436.44.26501,1.48.69699,2.31.961.831.263,2.034.92001,2.675,1.45801.64.539,3.044,1.76801,5.342,2.73099,4.372,1.83099,8.801,4.56601,9.495,5.862.224.418.985,1.02902,1.692,1.35699,1.403.651,4.878,3.10501,6.601,4.66.597.539,1.561,1.21701,2.143,1.50601.581.289,1.929,1.32599,2.994,2.30399,1.06499.97803,2.659,2.10303,3.542,2.50101.883.397,2.042,1.19699,2.576,1.77701.533.57999,1.202,1.05399,1.486,1.05399s1.107.51602,1.83,1.14603c.723.63098,2.034,1.51099,2.914,1.95798.88.44601,1.943,1.19,2.362,1.65302.419.46399.963.84299,1.209.84299s1.073.51401,1.838,1.142c.765.62802,2.021,1.45801,2.791,1.84399.77.38702,1.76,1.03802,2.2,1.44803,2.529,2.35498,11.04599,8.75598,12.98399,9.75699.69101.358,1.36101.922,1.489,1.254.127.332.931.883,1.787,1.22501,3.767,1.508,4.28101,4.93298.991,6.60098-.90799.46002-2.24199,1.35202-2.965,1.983-.72299.63-1.54601,1.146-1.83,1.146s-.953.474-1.48599,1.05402c-.53401.57999-1.78001,1.41699-2.77,1.85901-.99.44199-2.25,1.14697-2.8,1.56699-2.585,1.97101-10.252,6.767-11.171,6.987-1.362.32599-4.374,2.03101-5.649,3.19699-.561.513-2.092,1.353-3.401,1.866-1.309.513-2.951,1.50403-3.64899,2.20102-.698.698-1.524,1.26898-1.83701,1.26898s-.91199.379-1.33099.84302c-.41901.46399-1.57201,1.28101-2.562,1.815s-2.88,1.58499-4.2,2.33398c-1.32.75-3.3,1.84302-4.4,2.431-1.1.58701-2.329,1.36301-2.731,1.72302-.766.685-2.62,1.68298-8.269,4.44699-5.117,2.504-15.306,4.54199-21.853,4.37-2.171-.05701-4.937.09399-6.147.33398-1.21.24103-4.156.66202-6.546.93503-4.405.504-8.248,2.40198-8.256,4.077-.002.26999-.297,1.03101-.657,1.69098-.36.66-1.009,1.92001-1.441,2.80002-.433.88-1.262,2.10699-1.843,2.72699-1.424,1.51801-1.518,5.31799-.168,6.755.962,1.02499,1.686,3.659,1.701,6.189.008,1.27301.235,1.84799.956,2.41501.52.409,1.235,1.27701,1.588,1.92899,1.632,3.01102,7.348,7.95602,10.335,8.94202,2.311.76199,8.913,7.556,9.462,9.73599.252,1,.711,1.914,1.021,2.03299.31.11902.957,1.39801,1.437,2.841s1.058,2.73801,1.283,2.87701c.718.444,1.514,2.83798,1.938,5.82401.249,1.758.807,3.57397,1.421,4.62.555.94901,1.267,3.026,1.582,4.61798,1.184,5.992,2.603,9.23203,4.187,9.55801,2.331.48001,6.279-.65701,9.397-2.70499,1.519-.99802,3.327-2.05103,4.017-2.33902,3.254-1.35999,7.725-7.69699,8.853-12.548.341-1.47.961-3.70798,1.377-4.974.87-2.64899.93301-3.61899.31001-4.78299-.331-.61899-.321-1.24899.04-2.45401.28999-.96698.477-3.96698.464-7.44098-.031-7.97501.918-9.72803,6.942-12.83701.88-.45502,2.68-1.71402,4-2.79901,1.32-1.086,3.116-2.35999,3.99-2.83301.875-.47198,2.08-1.32999,2.68-1.905,1.863-1.78799,2.745-2.483,4.263-3.35498.807-.46402,2.058-1.349,2.781-1.96701s1.623-1.12701,2-1.13101,2.306-.98499,4.286-2.17999c1.98-1.19501,4.408-2.55099,5.395-3.013.987-.461,2.15701-1.177,2.6-1.591.443-.41299,1.824-1.13098,3.06901-1.595,1.245-.46399,2.50499-1.13699,2.8-1.49399.295-.358,1.30099-.98901,2.237-1.40399.935-.41501,2.146-1.19901,2.68999-1.74301.54401-.54401,1.513-1.09399,2.15401-1.22198.64099-.12802,1.539-.73901,1.996-1.35703.457-.61899,1.382-1.245,2.05499-1.39297.673-.14801,1.715-.68301,2.317-1.18903.60201-.50598,1.722-1.215,2.49001-1.57498,1.77-.82901,5.87999-3.36002,7.367-4.53702.62599-.495,1.34799-.89999,1.605-.89999s1.17799-.509,2.04599-1.13c.869-.62198,2.41801-1.44098,3.444-1.81998,1.02501-.379,1.957-.93002,2.07001-1.22501.11301-.29501,1.07401-.862,2.13499-1.26001,1.06201-.39899,2.56-1.21701,3.33-1.82001.77-.60199,1.93401-1.22498,2.58701-1.38498s2.633-1.31601,4.39999-2.57001c1.767-1.25299,3.618-2.40601,4.11301-2.561.495-.15601,1.373-.90201,1.94899-1.65799,2.13701-2.802,10.29901-2.616,15.39201.35001,2.27199,1.32397,7.683,3.28699,10.02899,3.63898,2.241.336,10.40401,3.05301,12.718,4.23401.92999.474,4.147,1.759,7.151,2.85501,3.004,1.09598,5.93401,2.33298,6.513,2.74799,1.23399.88602,8.513,4.40302,9.114,4.40302.226,0,1.451.46799,2.72301,1.04099,1.271.57199,3.543,1.46701,5.04799,1.98901,1.506.521,3.666,1.375,4.8,1.897,4.724,2.17398,6.961,3.07599,8.66299,3.49298.99002.24301,2.42999.86902,3.20001,1.39099,1.586,1.07501,6.228,3.095,9.79999,4.26501,1.32001.43201,3.39001,1.207,4.60001,1.72198,1.20999.51501,3.01001,1.14401,4,1.39801,1.86401.479,6.948,2.90799,8,3.823.32999.28702,2.39999,1.448,4.60001,2.57901,2.19998,1.13199,4.35999,2.39099,4.79999,2.79898.71802.664,7.03799,4.00302,7.578,4.00302.39902,0,5.198,3.64999,6.491,4.93698.698.69501,2.00601,1.89301,2.905,2.66302,2.99899,2.56598,4.513,4.189,5.03702,5.39999.28598.66.996,1.73999,1.578,2.39999s1.31198,1.67599,1.62299,2.258c.31.58099,1.065,1.591,1.67599,2.24301.612.65298,2.10202,2.32001,3.31201,3.70499,2.01999,2.31302,3.13699,3.45801,6.05399,6.202.58002.54602,1.254.992,1.49902.992.24399,0,1.12799.617,1.96298,1.37201,2.11899,1.914,3.18701,2.10098,4.89401.85501.76498-.55801,1.92999-1.36603,2.59-1.79703,1.28101-.836,1.388-.93799,3.138-3.00699.62698-.73999,1.67099-1.927,2.32199-2.63699s1.526-2.19202,1.944-3.29401c.41901-1.10199,1.10699-2.384,1.52899-2.84799.422-.46402,1.07001-1.77899,1.44202-2.92102.371-1.14297.99899-2.49298,1.39499-3,.397-.508,1.63101-2.69598,2.742-4.86298,2.64099-5.14801,5.78799-8.78201,11.888-13.72601,6.59201-5.34399,10.08099-8.85001,10.51801-10.57001.44598-1.75598-.758-6.58099-1.935-7.75598-1.694-1.69101-2.72-2.509-4.366-3.48102-6.189-3.65598-7.40402-3.88-19.81702-3.66-18.96201.33603-19.48099.32602-21.14499-.39499-.85001-.36801-2.59302-.83798-3.87302-1.04401-1.27899-.20599-3.55399-.91199-5.05399-1.56799-1.5-.65698-3.89801-1.40298-5.328-1.65799s-3.34799-.79202-4.26099-1.19299c-.914-.401-2.694-1.03003-3.95602-1.397-1.26199-.367-2.68799-.92401-3.16898-1.23901-.48001-.315-2.18802-1.01999-3.79501-1.56699-1.60699-.54602-3.13-1.16602-3.384-1.37701-.255-.211-1.897-.77499-3.64899-1.254-1.75201-.478-3.672-1.11801-4.26602-1.422-.59399-.30402-2.034-.74899-3.19998-.98999-1.18402-.24402-3.88699-1.43201-6.12-2.69101-2.20001-1.23999-4.961-2.64999-6.13501-3.133s-2.43399-1.13501-2.79999-1.448c-.62003-.53201-8.20602-4.29102-8.65802-4.29102-.11301,0-3.17599-1.44-6.80701-3.19998-3.63098-1.76001-6.70898-3.20001-6.83899-3.20001-.13101,0-.715-.327-1.29901-.72699-.58398-.39902-3.13199-1.60901-5.66199-2.68701s-5.089-2.35501-5.688-2.83701c-.59799-.48199-2.03799-1.17798-3.2-1.54599-1.836-.58099-3.946-1.50201-9.383-4.09201-3.53801-1.686-1.97-5.53101,3.371-8.26599.715-.366,1.29999-.81601,1.29999-1.00101,0-.18399,1.048-.80499,2.33-1.38,1.28101-.57498,2.653-1.40298,3.048-1.84.395-.43698,1.369-1.008,2.16299-1.26999.79401-.263,3.067-1.37399,5.05101-2.46899,1.985-1.09601,4.46298-2.41901,5.508-2.94s1.89999-1.108,1.89999-1.30499c0-.19702,2.017-1.38,4.483-2.62903,2.466-1.24899,4.70901-2.59198,4.98401-2.98599.276-.39301,1.09299-.952,1.81699-1.242.724-.29099,1.90701-1.03598,2.63-1.65598.72299-.62003,1.55002-1.12701,1.84-1.12701.289,0,1.31799-.53699,2.28601-1.19299.96799-.65601,2.66-1.48901,3.76001-1.85101,1.09998-.362,2.276-.89899,2.61398-1.19199.33801-.293,1.72101-.87701,3.073-1.298,1.35202-.42099,2.93402-1.13901,3.51401-1.595.58099-.457,1.996-1.104,3.146-1.43799,1.14902-.33502,2.504-1.04901,3.01102-1.58801.50699-.54001,1.48798-1.20401,2.18198-1.478.69302-.27301,1.62-.80301,2.06-1.17801s1.70001-.995,2.80002-1.37698c1.10001-.38202,2.63199-1.02301,3.405-1.42502,2.31699-1.20599,13.36499-5.336,16.19501-6.05399,2.59299-.65802,12.056-.19202,14.19998.70099,5.86002,2.43799,17.948.51599,22.51001-3.57999,3.28101-2.94601,3.61099-13.41801.53699-17.07101-.564-.67-1.245-1.95-1.51199-2.843-.26801-.89299-.73001-1.717-1.02798-1.83099-.298-.114-.892-.896-1.32101-1.737-.42899-.841-1.01099-1.674-1.293-1.851-.28201-.17599-.832-.82401-1.224-1.439-.39099-.61501-1.112-1.30101-1.60199-1.524-.49002-.224-1.69601-1.405-2.67902-2.627-2.159-2.681-8.401-9.84801-8.83099-10.13901-.168-.114-.672-1.05901-1.11801-2.09999-.44598-1.041-.98898-1.89201-1.207-1.89201-.74298,0-3.51099-5.39-4.19299-8.164-.37399-1.51999-1.10599-3.5-1.62698-4.39999-.52103-.89999-1.25803-3.09799-1.63702-4.88499-1.22897-5.791-4.85098-8.306-9.36697-6.505" />
  </g>
</svg>